<?xml version="1.0" encoding="utf-8" standalone="no"?>
<!DOCTYPE svg PUBLIC "-//W3C//DTD SVG 1.1//EN"
  "http://www.w3.org/Graphics/SVG/1.1/DTD/svg11.dtd">
<svg xmlns:xlink="http://www.w3.org/1999/xlink" width="232.5775pt" height="216.8875pt" viewBox="0 0 232.5775 216.8875" xmlns="http://www.w3.org/2000/svg" version="1.1">
 <metadata>
  <rdf:RDF xmlns:dc="http://purl.org/dc/elements/1.1/" xmlns:cc="http://creativecommons.org/ns#" xmlns:rdf="http://www.w3.org/1999/02/22-rdf-syntax-ns#">
   <cc:Work>
    <dc:type rdf:resource="http://purl.org/dc/dcmitype/StillImage"/>
    <dc:date>2025-03-25T10:48:06.678597</dc:date>
    <dc:format>image/svg+xml</dc:format>
    <dc:creator>
     <cc:Agent>
      <dc:title>Matplotlib v3.7.3, https://matplotlib.org/</dc:title>
     </cc:Agent>
    </dc:creator>
   </cc:Work>
  </rdf:RDF>
 </metadata>
 <defs>
  <style type="text/css">*{stroke-linejoin: round; stroke-linecap: butt}</style>
 </defs>
 <g id="figure_1">
  <g id="patch_1">
   <path d="M 0 216.8875 
L 232.5775 216.8875 
L 232.5775 0 
L 0 0 
z
" style="fill: #ffffff"/>
  </g>
  <g id="axes_1">
   <g id="patch_2">
    <path d="M 30.0775 188.638125 
L 225.3775 188.638125 
L 225.3775 22.318125 
L 30.0775 22.318125 
z
" style="fill: #ffffff"/>
   </g>
   <g id="PathCollection_1">
    <defs>
     <path id="m32284d62f7" d="M 0 0.280299 
C 0.074336 0.280299 0.145638 0.250765 0.198201 0.198201 
C 0.250765 0.145638 0.280299 0.074336 0.280299 0 
C 0.280299 -0.074336 0.250765 -0.145638 0.198201 -0.198201 
C 0.145638 -0.250765 0.074336 -0.280299 0 -0.280299 
C -0.074336 -0.280299 -0.145638 -0.250765 -0.198201 -0.198201 
C -0.250765 -0.145638 -0.280299 -0.074336 -0.280299 0 
C -0.280299 0.074336 -0.250765 0.145638 -0.198201 0.198201 
C -0.145638 0.250765 -0.074336 0.280299 0 0.280299 
z
" style="stroke: #000000; stroke-opacity: 0.7"/>
    </defs>
    <g clip-path="url(#p49ff2a5952)">
     <use xlink:href="#m32284d62f7" x="38.954773" y="181.078125" style="fill: #ff00ff; fill-opacity: 0.7; stroke: #000000; stroke-opacity: 0.7"/>
    </g>
   </g>
   <g id="PathCollection_2">
    <g clip-path="url(#p49ff2a5952)">
     <use xlink:href="#m32284d62f7" x="38.954773" y="181.078125" style="fill: #ff00ff; fill-opacity: 0.7; stroke: #000000; stroke-opacity: 0.7"/>
    </g>
   </g>
   <g id="PathCollection_3">
    <defs>
     <path id="mf921dc9bf1" d="M 0 0.271871 
C 0.072101 0.271871 0.141259 0.243225 0.192242 0.192242 
C 0.243225 0.141259 0.271871 0.072101 0.271871 0 
C 0.271871 -0.072101 0.243225 -0.141259 0.192242 -0.192242 
C 0.141259 -0.243225 0.072101 -0.271871 0 -0.271871 
C -0.072101 -0.271871 -0.141259 -0.243225 -0.192242 -0.192242 
C -0.243225 -0.141259 -0.271871 -0.072101 -0.271871 0 
C -0.271871 0.072101 -0.243225 0.141259 -0.192242 0.192242 
C -0.141259 0.243225 -0.072101 0.271871 0 0.271871 
z
" style="stroke: #000000; stroke-opacity: 0.7"/>
    </defs>
    <g clip-path="url(#p49ff2a5952)">
     <use xlink:href="#mf921dc9bf1" x="47.409318" y="173.878125" style="fill: #0000ff; fill-opacity: 0.7; stroke: #000000; stroke-opacity: 0.7"/>
    </g>
   </g>
   <g id="PathCollection_4">
    <defs>
     <path id="m9a1dfeb4b4" d="M 0 0.272483 
C 0.072263 0.272483 0.141576 0.243772 0.192674 0.192674 
C 0.243772 0.141576 0.272483 0.072263 0.272483 0 
C 0.272483 -0.072263 0.243772 -0.141576 0.192674 -0.192674 
C 0.141576 -0.243772 0.072263 -0.272483 0 -0.272483 
C -0.072263 -0.272483 -0.141576 -0.243772 -0.192674 -0.192674 
C -0.243772 -0.141576 -0.272483 -0.072263 -0.272483 0 
C -0.272483 0.072263 -0.243772 0.141576 -0.192674 0.192674 
C -0.141576 0.243772 -0.072263 0.272483 0 0.272483 
z
" style="stroke: #000000; stroke-opacity: 0.7"/>
    </defs>
    <g clip-path="url(#p49ff2a5952)">
     <use xlink:href="#m9a1dfeb4b4" x="47.409318" y="173.878125" style="fill: #808080; fill-opacity: 0.7; stroke: #000000; stroke-opacity: 0.7"/>
    </g>
   </g>
   <g id="PathCollection_5">
    <defs>
     <path id="mae445b9531" d="M 0 0.275383 
C 0.073032 0.275383 0.143083 0.246367 0.194725 0.194725 
C 0.246367 0.143083 0.275383 0.073032 0.275383 0 
C 0.275383 -0.073032 0.246367 -0.143083 0.194725 -0.194725 
C 0.143083 -0.246367 0.073032 -0.275383 0 -0.275383 
C -0.073032 -0.275383 -0.143083 -0.246367 -0.194725 -0.194725 
C -0.246367 -0.143083 -0.275383 -0.073032 -0.275383 0 
C -0.275383 0.073032 -0.246367 0.143083 -0.194725 0.194725 
C -0.143083 0.246367 -0.073032 0.275383 0 0.275383 
z
" style="stroke: #000000; stroke-opacity: 0.7"/>
    </defs>
    <g clip-path="url(#p49ff2a5952)">
     <use xlink:href="#mae445b9531" x="55.863864" y="166.678125" style="fill: #0000ff; fill-opacity: 0.7; stroke: #000000; stroke-opacity: 0.7"/>
    </g>
   </g>
   <g id="PathCollection_6">
    <defs>
     <path id="mdd0ba57090" d="M 0 0.278372 
C 0.073825 0.278372 0.144636 0.249041 0.196839 0.196839 
C 0.249041 0.144636 0.278372 0.073825 0.278372 0 
C 0.278372 -0.073825 0.249041 -0.144636 0.196839 -0.196839 
C 0.144636 -0.249041 0.073825 -0.278372 0 -0.278372 
C -0.073825 -0.278372 -0.144636 -0.249041 -0.196839 -0.196839 
C -0.249041 -0.144636 -0.278372 -0.073825 -0.278372 0 
C -0.278372 0.073825 -0.249041 0.144636 -0.196839 0.196839 
C -0.144636 0.249041 -0.073825 0.278372 0 0.278372 
z
" style="stroke: #000000; stroke-opacity: 0.7"/>
    </defs>
    <g clip-path="url(#p49ff2a5952)">
     <use xlink:href="#mdd0ba57090" x="55.863864" y="166.678125" style="fill: #808080; fill-opacity: 0.7; stroke: #000000; stroke-opacity: 0.7"/>
    </g>
   </g>
   <g id="PathCollection_7">
    <defs>
     <path id="mde344a70ac" d="M 0 0.243716 
C 0.064634 0.243716 0.12663 0.218036 0.172333 0.172333 
C 0.218036 0.12663 0.243716 0.064634 0.243716 0 
C 0.243716 -0.064634 0.218036 -0.12663 0.172333 -0.172333 
C 0.12663 -0.218036 0.064634 -0.243716 0 -0.243716 
C -0.064634 -0.243716 -0.12663 -0.218036 -0.172333 -0.172333 
C -0.218036 -0.12663 -0.243716 -0.064634 -0.243716 0 
C -0.243716 0.064634 -0.218036 0.12663 -0.172333 0.172333 
C -0.12663 0.218036 -0.064634 0.243716 0 0.243716 
z
" style="stroke: #000000; stroke-opacity: 0.7"/>
    </defs>
    <g clip-path="url(#p49ff2a5952)">
     <use xlink:href="#mde344a70ac" x="64.318409" y="159.478125" style="fill: #0000ff; fill-opacity: 0.7; stroke: #000000; stroke-opacity: 0.7"/>
    </g>
   </g>
   <g id="PathCollection_8">
    <defs>
     <path id="m32e5fa7c5e" d="M 0 0.255396 
C 0.067732 0.255396 0.132699 0.228486 0.180592 0.180592 
C 0.228486 0.132699 0.255396 0.067732 0.255396 0 
C 0.255396 -0.067732 0.228486 -0.132699 0.180592 -0.180592 
C 0.132699 -0.228486 0.067732 -0.255396 0 -0.255396 
C -0.067732 -0.255396 -0.132699 -0.228486 -0.180592 -0.180592 
C -0.228486 -0.132699 -0.255396 -0.067732 -0.255396 0 
C -0.255396 0.067732 -0.228486 0.132699 -0.180592 0.180592 
C -0.132699 0.228486 -0.067732 0.255396 0 0.255396 
z
" style="stroke: #000000; stroke-opacity: 0.7"/>
    </defs>
    <g clip-path="url(#p49ff2a5952)">
     <use xlink:href="#m32e5fa7c5e" x="64.318409" y="159.478125" style="fill: #808080; fill-opacity: 0.7; stroke: #000000; stroke-opacity: 0.7"/>
    </g>
   </g>
   <g id="PathCollection_9">
    <defs>
     <path id="m0d98184581" d="M 0 0.273583 
C 0.072555 0.273583 0.142148 0.244757 0.193453 0.193453 
C 0.244757 0.142148 0.273583 0.072555 0.273583 0 
C 0.273583 -0.072555 0.244757 -0.142148 0.193453 -0.193453 
C 0.142148 -0.244757 0.072555 -0.273583 0 -0.273583 
C -0.072555 -0.273583 -0.142148 -0.244757 -0.193453 -0.193453 
C -0.244757 -0.142148 -0.273583 -0.072555 -0.273583 0 
C -0.273583 0.072555 -0.244757 0.142148 -0.193453 0.193453 
C -0.142148 0.244757 -0.072555 0.273583 0 0.273583 
z
" style="stroke: #000000; stroke-opacity: 0.7"/>
    </defs>
    <g clip-path="url(#p49ff2a5952)">
     <use xlink:href="#m0d98184581" x="72.772955" y="152.278125" style="fill: #0000ff; fill-opacity: 0.7; stroke: #000000; stroke-opacity: 0.7"/>
    </g>
   </g>
   <g id="PathCollection_10">
    <defs>
     <path id="m7af1f1c0d2" d="M 0 0.270777 
C 0.071811 0.270777 0.14069 0.242246 0.191468 0.191468 
C 0.242246 0.14069 0.270777 0.071811 0.270777 0 
C 0.270777 -0.071811 0.242246 -0.14069 0.191468 -0.191468 
C 0.14069 -0.242246 0.071811 -0.270777 0 -0.270777 
C -0.071811 -0.270777 -0.14069 -0.242246 -0.191468 -0.191468 
C -0.242246 -0.14069 -0.270777 -0.071811 -0.270777 0 
C -0.270777 0.071811 -0.242246 0.14069 -0.191468 0.191468 
C -0.14069 0.242246 -0.071811 0.270777 0 0.270777 
z
" style="stroke: #000000; stroke-opacity: 0.7"/>
    </defs>
    <g clip-path="url(#p49ff2a5952)">
     <use xlink:href="#m7af1f1c0d2" x="72.772955" y="152.278125" style="fill: #808080; fill-opacity: 0.7; stroke: #000000; stroke-opacity: 0.7"/>
    </g>
   </g>
   <g id="PathCollection_11">
    <defs>
     <path id="m07446dd00a" d="M 0 0.278018 
C 0.073731 0.278018 0.144453 0.248724 0.196588 0.196588 
C 0.248724 0.144453 0.278018 0.073731 0.278018 0 
C 0.278018 -0.073731 0.248724 -0.144453 0.196588 -0.196588 
C 0.144453 -0.248724 0.073731 -0.278018 0 -0.278018 
C -0.073731 -0.278018 -0.144453 -0.248724 -0.196588 -0.196588 
C -0.248724 -0.144453 -0.278018 -0.073731 -0.278018 0 
C -0.278018 0.073731 -0.248724 0.144453 -0.196588 0.196588 
C -0.144453 0.248724 -0.073731 0.278018 0 0.278018 
z
" style="stroke: #000000; stroke-opacity: 0.7"/>
    </defs>
    <g clip-path="url(#p49ff2a5952)">
     <use xlink:href="#m07446dd00a" x="81.2275" y="145.078125" style="fill: #0000ff; fill-opacity: 0.7; stroke: #000000; stroke-opacity: 0.7"/>
    </g>
   </g>
   <g id="PathCollection_12">
    <defs>
     <path id="m1f32c94d48" d="M 0 0.321192 
C 0.085181 0.321192 0.166885 0.287349 0.227117 0.227117 
C 0.287349 0.166885 0.321192 0.085181 0.321192 0 
C 0.321192 -0.085181 0.287349 -0.166885 0.227117 -0.227117 
C 0.166885 -0.287349 0.085181 -0.321192 0 -0.321192 
C -0.085181 -0.321192 -0.166885 -0.287349 -0.227117 -0.227117 
C -0.287349 -0.166885 -0.321192 -0.085181 -0.321192 0 
C -0.321192 0.085181 -0.287349 0.166885 -0.227117 0.227117 
C -0.166885 0.287349 -0.085181 0.321192 0 0.321192 
z
" style="stroke: #000000; stroke-opacity: 0.7"/>
    </defs>
    <g clip-path="url(#p49ff2a5952)">
     <use xlink:href="#m1f32c94d48" x="81.2275" y="145.078125" style="fill: #808080; fill-opacity: 0.7; stroke: #000000; stroke-opacity: 0.7"/>
    </g>
   </g>
   <g id="PathCollection_13">
    <defs>
     <path id="m840b768c54" d="M 0 0.278937 
C 0.073975 0.278937 0.14493 0.249546 0.197238 0.197238 
C 0.249546 0.14493 0.278937 0.073975 0.278937 0 
C 0.278937 -0.073975 0.249546 -0.14493 0.197238 -0.197238 
C 0.14493 -0.249546 0.073975 -0.278937 0 -0.278937 
C -0.073975 -0.278937 -0.14493 -0.249546 -0.197238 -0.197238 
C -0.249546 -0.14493 -0.278937 -0.073975 -0.278937 0 
C -0.278937 0.073975 -0.249546 0.14493 -0.197238 0.197238 
C -0.14493 0.249546 -0.073975 0.278937 0 0.278937 
z
" style="stroke: #000000; stroke-opacity: 0.7"/>
    </defs>
    <g clip-path="url(#p49ff2a5952)">
     <use xlink:href="#m840b768c54" x="89.682045" y="137.878125" style="fill: #0000ff; fill-opacity: 0.7; stroke: #000000; stroke-opacity: 0.7"/>
    </g>
   </g>
   <g id="PathCollection_14">
    <defs>
     <path id="m3672a0d9e7" d="M 0 0.272289 
C 0.072212 0.272289 0.141476 0.243599 0.192538 0.192538 
C 0.243599 0.141476 0.272289 0.072212 0.272289 0 
C 0.272289 -0.072212 0.243599 -0.141476 0.192538 -0.192538 
C 0.141476 -0.243599 0.072212 -0.272289 0 -0.272289 
C -0.072212 -0.272289 -0.141476 -0.243599 -0.192538 -0.192538 
C -0.243599 -0.141476 -0.272289 -0.072212 -0.272289 0 
C -0.272289 0.072212 -0.243599 0.141476 -0.192538 0.192538 
C -0.141476 0.243599 -0.072212 0.272289 0 0.272289 
z
" style="stroke: #000000; stroke-opacity: 0.7"/>
    </defs>
    <g clip-path="url(#p49ff2a5952)">
     <use xlink:href="#m3672a0d9e7" x="89.682045" y="137.878125" style="fill: #808080; fill-opacity: 0.7; stroke: #000000; stroke-opacity: 0.7"/>
    </g>
   </g>
   <g id="PathCollection_15">
    <defs>
     <path id="m30cd84930e" d="M 0 0.247073 
C 0.065525 0.247073 0.128374 0.22104 0.174707 0.174707 
C 0.22104 0.128374 0.247073 0.065525 0.247073 0 
C 0.247073 -0.065525 0.22104 -0.128374 0.174707 -0.174707 
C 0.128374 -0.22104 0.065525 -0.247073 0 -0.247073 
C -0.065525 -0.247073 -0.128374 -0.22104 -0.174707 -0.174707 
C -0.22104 -0.128374 -0.247073 -0.065525 -0.247073 0 
C -0.247073 0.065525 -0.22104 0.128374 -0.174707 0.174707 
C -0.128374 0.22104 -0.065525 0.247073 0 0.247073 
z
" style="stroke: #000000; stroke-opacity: 0.7"/>
    </defs>
    <g clip-path="url(#p49ff2a5952)">
     <use xlink:href="#m30cd84930e" x="98.136591" y="130.678125" style="fill: #0000ff; fill-opacity: 0.7; stroke: #000000; stroke-opacity: 0.7"/>
    </g>
   </g>
   <g id="PathCollection_16">
    <defs>
     <path id="mc2928516c8" d="M 0 0.257595 
C 0.068315 0.257595 0.133841 0.230453 0.182147 0.182147 
C 0.230453 0.133841 0.257595 0.068315 0.257595 0 
C 0.257595 -0.068315 0.230453 -0.133841 0.182147 -0.182147 
C 0.133841 -0.230453 0.068315 -0.257595 0 -0.257595 
C -0.068315 -0.257595 -0.133841 -0.230453 -0.182147 -0.182147 
C -0.230453 -0.133841 -0.257595 -0.068315 -0.257595 0 
C -0.257595 0.068315 -0.230453 0.133841 -0.182147 0.182147 
C -0.133841 0.230453 -0.068315 0.257595 0 0.257595 
z
" style="stroke: #000000; stroke-opacity: 0.7"/>
    </defs>
    <g clip-path="url(#p49ff2a5952)">
     <use xlink:href="#mc2928516c8" x="98.136591" y="130.678125" style="fill: #808080; fill-opacity: 0.7; stroke: #000000; stroke-opacity: 0.7"/>
    </g>
   </g>
   <g id="PathCollection_17">
    <defs>
     <path id="m5abb7f9251" d="M 0 0.267831 
C 0.07103 0.267831 0.13916 0.239611 0.189385 0.189385 
C 0.239611 0.13916 0.267831 0.07103 0.267831 0 
C 0.267831 -0.07103 0.239611 -0.13916 0.189385 -0.189385 
C 0.13916 -0.239611 0.07103 -0.267831 0 -0.267831 
C -0.07103 -0.267831 -0.13916 -0.239611 -0.189385 -0.189385 
C -0.239611 -0.13916 -0.267831 -0.07103 -0.267831 0 
C -0.267831 0.07103 -0.239611 0.13916 -0.189385 0.189385 
C -0.13916 0.239611 -0.07103 0.267831 0 0.267831 
z
" style="stroke: #000000; stroke-opacity: 0.7"/>
    </defs>
    <g clip-path="url(#p49ff2a5952)">
     <use xlink:href="#m5abb7f9251" x="106.591136" y="123.478125" style="fill: #0000ff; fill-opacity: 0.7; stroke: #000000; stroke-opacity: 0.7"/>
    </g>
   </g>
   <g id="PathCollection_18">
    <defs>
     <path id="m8723926d07" d="M 0 0.262914 
C 0.069726 0.262914 0.136605 0.235212 0.185908 0.185908 
C 0.235212 0.136605 0.262914 0.069726 0.262914 0 
C 0.262914 -0.069726 0.235212 -0.136605 0.185908 -0.185908 
C 0.136605 -0.235212 0.069726 -0.262914 0 -0.262914 
C -0.069726 -0.262914 -0.136605 -0.235212 -0.185908 -0.185908 
C -0.235212 -0.136605 -0.262914 -0.069726 -0.262914 0 
C -0.262914 0.069726 -0.235212 0.136605 -0.185908 0.185908 
C -0.136605 0.235212 -0.069726 0.262914 0 0.262914 
z
" style="stroke: #000000; stroke-opacity: 0.7"/>
    </defs>
    <g clip-path="url(#p49ff2a5952)">
     <use xlink:href="#m8723926d07" x="106.591136" y="123.478125" style="fill: #808080; fill-opacity: 0.7; stroke: #000000; stroke-opacity: 0.7"/>
    </g>
   </g>
   <g id="PathCollection_19">
    <defs>
     <path id="mc7b5619709" d="M 0 0.269684 
C 0.071521 0.269684 0.140122 0.241269 0.190696 0.190696 
C 0.241269 0.140122 0.269684 0.071521 0.269684 0 
C 0.269684 -0.071521 0.241269 -0.140122 0.190696 -0.190696 
C 0.140122 -0.241269 0.071521 -0.269684 0 -0.269684 
C -0.071521 -0.269684 -0.140122 -0.241269 -0.190696 -0.190696 
C -0.241269 -0.140122 -0.269684 -0.071521 -0.269684 0 
C -0.269684 0.071521 -0.241269 0.140122 -0.190696 0.190696 
C -0.140122 0.241269 -0.071521 0.269684 0 0.269684 
z
" style="stroke: #000000; stroke-opacity: 0.7"/>
    </defs>
    <g clip-path="url(#p49ff2a5952)">
     <use xlink:href="#mc7b5619709" x="115.045682" y="116.278125" style="fill: #0000ff; fill-opacity: 0.7; stroke: #000000; stroke-opacity: 0.7"/>
    </g>
   </g>
   <g id="PathCollection_20">
    <g clip-path="url(#p49ff2a5952)">
     <use xlink:href="#m9a1dfeb4b4" x="115.045682" y="116.278125" style="fill: #808080; fill-opacity: 0.7; stroke: #000000; stroke-opacity: 0.7"/>
    </g>
   </g>
   <g id="PathCollection_21">
    <defs>
     <path id="mee0897a372" d="M 0 0.276211 
C 0.073252 0.276211 0.143514 0.247107 0.195311 0.195311 
C 0.247107 0.143514 0.276211 0.073252 0.276211 0 
C 0.276211 -0.073252 0.247107 -0.143514 0.195311 -0.195311 
C 0.143514 -0.247107 0.073252 -0.276211 0 -0.276211 
C -0.073252 -0.276211 -0.143514 -0.247107 -0.195311 -0.195311 
C -0.247107 -0.143514 -0.276211 -0.073252 -0.276211 0 
C -0.276211 0.073252 -0.247107 0.143514 -0.195311 0.195311 
C -0.143514 0.247107 -0.073252 0.276211 0 0.276211 
z
" style="stroke: #000000; stroke-opacity: 0.7"/>
    </defs>
    <g clip-path="url(#p49ff2a5952)">
     <use xlink:href="#mee0897a372" x="123.500227" y="109.078125" style="fill: #0000ff; fill-opacity: 0.7; stroke: #000000; stroke-opacity: 0.7"/>
    </g>
   </g>
   <g id="PathCollection_22">
    <defs>
     <path id="ma85ca3f597" d="M 0 0.31038 
C 0.082314 0.31038 0.161267 0.277676 0.219472 0.219472 
C 0.277676 0.161267 0.31038 0.082314 0.31038 0 
C 0.31038 -0.082314 0.277676 -0.161267 0.219472 -0.219472 
C 0.161267 -0.277676 0.082314 -0.31038 0 -0.31038 
C -0.082314 -0.31038 -0.161267 -0.277676 -0.219472 -0.219472 
C -0.277676 -0.161267 -0.31038 -0.082314 -0.31038 0 
C -0.31038 0.082314 -0.277676 0.161267 -0.219472 0.219472 
C -0.161267 0.277676 -0.082314 0.31038 0 0.31038 
z
" style="stroke: #000000; stroke-opacity: 0.7"/>
    </defs>
    <g clip-path="url(#p49ff2a5952)">
     <use xlink:href="#ma85ca3f597" x="123.500227" y="109.078125" style="fill: #808080; fill-opacity: 0.7; stroke: #000000; stroke-opacity: 0.7"/>
    </g>
   </g>
   <g id="PathCollection_23">
    <defs>
     <path id="m63a375ee7d" d="M 0 0.251945 
C 0.066817 0.251945 0.130905 0.225398 0.178152 0.178152 
C 0.225398 0.130905 0.251945 0.066817 0.251945 0 
C 0.251945 -0.066817 0.225398 -0.130905 0.178152 -0.178152 
C 0.130905 -0.225398 0.066817 -0.251945 0 -0.251945 
C -0.066817 -0.251945 -0.130905 -0.225398 -0.178152 -0.178152 
C -0.225398 -0.130905 -0.251945 -0.066817 -0.251945 0 
C -0.251945 0.066817 -0.225398 0.130905 -0.178152 0.178152 
C -0.130905 0.225398 -0.066817 0.251945 0 0.251945 
z
" style="stroke: #000000; stroke-opacity: 0.7"/>
    </defs>
    <g clip-path="url(#p49ff2a5952)">
     <use xlink:href="#m63a375ee7d" x="131.954773" y="101.878125" style="fill: #0000ff; fill-opacity: 0.7; stroke: #000000; stroke-opacity: 0.7"/>
    </g>
   </g>
   <g id="PathCollection_24">
    <defs>
     <path id="mdca99f2274" d="M 0 0.260847 
C 0.069178 0.260847 0.135531 0.233363 0.184447 0.184447 
C 0.233363 0.135531 0.260847 0.069178 0.260847 0 
C 0.260847 -0.069178 0.233363 -0.135531 0.184447 -0.184447 
C 0.135531 -0.233363 0.069178 -0.260847 0 -0.260847 
C -0.069178 -0.260847 -0.135531 -0.233363 -0.184447 -0.184447 
C -0.233363 -0.135531 -0.260847 -0.069178 -0.260847 0 
C -0.260847 0.069178 -0.233363 0.135531 -0.184447 0.184447 
C -0.135531 0.233363 -0.069178 0.260847 0 0.260847 
z
" style="stroke: #000000; stroke-opacity: 0.7"/>
    </defs>
    <g clip-path="url(#p49ff2a5952)">
     <use xlink:href="#mdca99f2274" x="131.954773" y="101.878125" style="fill: #808080; fill-opacity: 0.7; stroke: #000000; stroke-opacity: 0.7"/>
    </g>
   </g>
   <g id="PathCollection_25">
    <defs>
     <path id="medbc398ef4" d="M 0 0.277671 
C 0.073639 0.277671 0.144272 0.248414 0.196343 0.196343 
C 0.248414 0.144272 0.277671 0.073639 0.277671 0 
C 0.277671 -0.073639 0.248414 -0.144272 0.196343 -0.196343 
C 0.144272 -0.248414 0.073639 -0.277671 0 -0.277671 
C -0.073639 -0.277671 -0.144272 -0.248414 -0.196343 -0.196343 
C -0.248414 -0.144272 -0.277671 -0.073639 -0.277671 0 
C -0.277671 0.073639 -0.248414 0.144272 -0.196343 0.196343 
C -0.144272 0.248414 -0.073639 0.277671 0 0.277671 
z
" style="stroke: #000000; stroke-opacity: 0.7"/>
    </defs>
    <g clip-path="url(#p49ff2a5952)">
     <use xlink:href="#medbc398ef4" x="140.409318" y="94.678125" style="fill: #0000ff; fill-opacity: 0.7; stroke: #000000; stroke-opacity: 0.7"/>
    </g>
   </g>
   <g id="PathCollection_26">
    <defs>
     <path id="mc7051db861" d="M 0 0.2781 
C 0.073753 0.2781 0.144495 0.248798 0.196646 0.196646 
C 0.248798 0.144495 0.2781 0.073753 0.2781 0 
C 0.2781 -0.073753 0.248798 -0.144495 0.196646 -0.196646 
C 0.144495 -0.248798 0.073753 -0.2781 0 -0.2781 
C -0.073753 -0.2781 -0.144495 -0.248798 -0.196646 -0.196646 
C -0.248798 -0.144495 -0.2781 -0.073753 -0.2781 0 
C -0.2781 0.073753 -0.248798 0.144495 -0.196646 0.196646 
C -0.144495 0.248798 -0.073753 0.2781 0 0.2781 
z
" style="stroke: #000000; stroke-opacity: 0.7"/>
    </defs>
    <g clip-path="url(#p49ff2a5952)">
     <use xlink:href="#mc7051db861" x="140.409318" y="94.678125" style="fill: #808080; fill-opacity: 0.7; stroke: #000000; stroke-opacity: 0.7"/>
    </g>
   </g>
   <g id="PathCollection_27">
    <defs>
     <path id="mab394c9f1c" d="M 0 0.266202 
C 0.070598 0.266202 0.138313 0.238153 0.188233 0.188233 
C 0.238153 0.138313 0.266202 0.070598 0.266202 0 
C 0.266202 -0.070598 0.238153 -0.138313 0.188233 -0.188233 
C 0.138313 -0.238153 0.070598 -0.266202 0 -0.266202 
C -0.070598 -0.266202 -0.138313 -0.238153 -0.188233 -0.188233 
C -0.238153 -0.138313 -0.266202 -0.070598 -0.266202 0 
C -0.266202 0.070598 -0.238153 0.138313 -0.188233 0.188233 
C -0.138313 0.238153 -0.070598 0.266202 0 0.266202 
z
" style="stroke: #000000; stroke-opacity: 0.7"/>
    </defs>
    <g clip-path="url(#p49ff2a5952)">
     <use xlink:href="#mab394c9f1c" x="148.863864" y="87.478125" style="fill: #0000ff; fill-opacity: 0.7; stroke: #000000; stroke-opacity: 0.7"/>
    </g>
   </g>
   <g id="PathCollection_28">
    <defs>
     <path id="me6c0c9c851" d="M 0 0.273395 
C 0.072505 0.273395 0.142051 0.244589 0.19332 0.19332 
C 0.244589 0.142051 0.273395 0.072505 0.273395 0 
C 0.273395 -0.072505 0.244589 -0.142051 0.19332 -0.19332 
C 0.142051 -0.244589 0.072505 -0.273395 0 -0.273395 
C -0.072505 -0.273395 -0.142051 -0.244589 -0.19332 -0.19332 
C -0.244589 -0.142051 -0.273395 -0.072505 -0.273395 0 
C -0.273395 0.072505 -0.244589 0.142051 -0.19332 0.19332 
C -0.142051 0.244589 -0.072505 0.273395 0 0.273395 
z
" style="stroke: #000000; stroke-opacity: 0.7"/>
    </defs>
    <g clip-path="url(#p49ff2a5952)">
     <use xlink:href="#me6c0c9c851" x="148.863864" y="87.478125" style="fill: #808080; fill-opacity: 0.7; stroke: #000000; stroke-opacity: 0.7"/>
    </g>
   </g>
   <g id="PathCollection_29">
    <defs>
     <path id="m92e05c028e" d="M 0 0.283615 
C 0.075216 0.283615 0.147361 0.253732 0.200546 0.200546 
C 0.253732 0.147361 0.283615 0.075216 0.283615 0 
C 0.283615 -0.075216 0.253732 -0.147361 0.200546 -0.200546 
C 0.147361 -0.253732 0.075216 -0.283615 0 -0.283615 
C -0.075216 -0.283615 -0.147361 -0.253732 -0.200546 -0.200546 
C -0.253732 -0.147361 -0.283615 -0.075216 -0.283615 0 
C -0.283615 0.075216 -0.253732 0.147361 -0.200546 0.200546 
C -0.147361 0.253732 -0.075216 0.283615 0 0.283615 
z
" style="stroke: #000000; stroke-opacity: 0.7"/>
    </defs>
    <g clip-path="url(#p49ff2a5952)">
     <use xlink:href="#m92e05c028e" x="157.318409" y="80.278125" style="fill: #008000; fill-opacity: 0.7; stroke: #000000; stroke-opacity: 0.7"/>
    </g>
   </g>
   <g id="PathCollection_30">
    <defs>
     <path id="m56dfb16134" d="M 0 0.295042 
C 0.078246 0.295042 0.153298 0.263955 0.208626 0.208626 
C 0.263955 0.153298 0.295042 0.078246 0.295042 0 
C 0.295042 -0.078246 0.263955 -0.153298 0.208626 -0.208626 
C 0.153298 -0.263955 0.078246 -0.295042 0 -0.295042 
C -0.078246 -0.295042 -0.153298 -0.263955 -0.208626 -0.208626 
C -0.263955 -0.153298 -0.295042 -0.078246 -0.295042 0 
C -0.295042 0.078246 -0.263955 0.153298 -0.208626 0.208626 
C -0.153298 0.263955 -0.078246 0.295042 0 0.295042 
z
" style="stroke: #000000; stroke-opacity: 0.7"/>
    </defs>
    <g clip-path="url(#p49ff2a5952)">
     <use xlink:href="#m56dfb16134" x="157.318409" y="80.278125" style="fill: #808080; fill-opacity: 0.7; stroke: #000000; stroke-opacity: 0.7"/>
    </g>
   </g>
   <g id="PathCollection_31">
    <defs>
     <path id="md703e6ac34" d="M 0 0.257789 
C 0.068366 0.257789 0.133942 0.230626 0.182284 0.182284 
C 0.230626 0.133942 0.257789 0.068366 0.257789 0 
C 0.257789 -0.068366 0.230626 -0.133942 0.182284 -0.182284 
C 0.133942 -0.230626 0.068366 -0.257789 0 -0.257789 
C -0.068366 -0.257789 -0.133942 -0.230626 -0.182284 -0.182284 
C -0.230626 -0.133942 -0.257789 -0.068366 -0.257789 0 
C -0.257789 0.068366 -0.230626 0.133942 -0.182284 0.182284 
C -0.133942 0.230626 -0.068366 0.257789 0 0.257789 
z
" style="stroke: #000000; stroke-opacity: 0.7"/>
    </defs>
    <g clip-path="url(#p49ff2a5952)">
     <use xlink:href="#md703e6ac34" x="165.772955" y="73.078125" style="fill: #0000ff; fill-opacity: 0.7; stroke: #000000; stroke-opacity: 0.7"/>
    </g>
   </g>
   <g id="PathCollection_32">
    <defs>
     <path id="m2e261f33ca" d="M 0 0.257994 
C 0.068421 0.257994 0.134049 0.23081 0.18243 0.18243 
C 0.23081 0.134049 0.257994 0.068421 0.257994 0 
C 0.257994 -0.068421 0.23081 -0.134049 0.18243 -0.18243 
C 0.134049 -0.23081 0.068421 -0.257994 0 -0.257994 
C -0.068421 -0.257994 -0.134049 -0.23081 -0.18243 -0.18243 
C -0.23081 -0.134049 -0.257994 -0.068421 -0.257994 0 
C -0.257994 0.068421 -0.23081 0.134049 -0.18243 0.18243 
C -0.134049 0.23081 -0.068421 0.257994 0 0.257994 
z
" style="stroke: #000000; stroke-opacity: 0.7"/>
    </defs>
    <g clip-path="url(#p49ff2a5952)">
     <use xlink:href="#m2e261f33ca" x="165.772955" y="73.078125" style="fill: #808080; fill-opacity: 0.7; stroke: #000000; stroke-opacity: 0.7"/>
    </g>
   </g>
   <g id="PathCollection_33">
    <defs>
     <path id="m277f73174f" d="M 0 0.279677 
C 0.074171 0.279677 0.145315 0.250209 0.197762 0.197762 
C 0.250209 0.145315 0.279677 0.074171 0.279677 0 
C 0.279677 -0.074171 0.250209 -0.145315 0.197762 -0.197762 
C 0.145315 -0.250209 0.074171 -0.279677 0 -0.279677 
C -0.074171 -0.279677 -0.145315 -0.250209 -0.197762 -0.197762 
C -0.250209 -0.145315 -0.279677 -0.074171 -0.279677 0 
C -0.279677 0.074171 -0.250209 0.145315 -0.197762 0.197762 
C -0.145315 0.250209 -0.074171 0.279677 0 0.279677 
z
" style="stroke: #000000; stroke-opacity: 0.7"/>
    </defs>
    <g clip-path="url(#p49ff2a5952)">
     <use xlink:href="#m277f73174f" x="174.2275" y="65.878125" style="fill: #0000ff; fill-opacity: 0.7; stroke: #000000; stroke-opacity: 0.7"/>
    </g>
   </g>
   <g id="PathCollection_34">
    <defs>
     <path id="m111aae7ec9" d="M 0 0.265769 
C 0.070483 0.265769 0.138088 0.237766 0.187927 0.187927 
C 0.237766 0.138088 0.265769 0.070483 0.265769 0 
C 0.265769 -0.070483 0.237766 -0.138088 0.187927 -0.187927 
C 0.138088 -0.237766 0.070483 -0.265769 0 -0.265769 
C -0.070483 -0.265769 -0.138088 -0.237766 -0.187927 -0.187927 
C -0.237766 -0.138088 -0.265769 -0.070483 -0.265769 0 
C -0.265769 0.070483 -0.237766 0.138088 -0.187927 0.187927 
C -0.138088 0.237766 -0.070483 0.265769 0 0.265769 
z
" style="stroke: #000000; stroke-opacity: 0.7"/>
    </defs>
    <g clip-path="url(#p49ff2a5952)">
     <use xlink:href="#m111aae7ec9" x="174.2275" y="65.878125" style="fill: #808080; fill-opacity: 0.7; stroke: #000000; stroke-opacity: 0.7"/>
    </g>
   </g>
   <g id="PathCollection_35">
    <defs>
     <path id="m5ef42b1d48" d="M 0 0.235702 
C 0.062509 0.235702 0.122466 0.210867 0.166667 0.166667 
C 0.210867 0.122466 0.235702 0.062509 0.235702 0 
C 0.235702 -0.062509 0.210867 -0.122466 0.166667 -0.166667 
C 0.122466 -0.210867 0.062509 -0.235702 0 -0.235702 
C -0.062509 -0.235702 -0.122466 -0.210867 -0.166667 -0.166667 
C -0.210867 -0.122466 -0.235702 -0.062509 -0.235702 0 
C -0.235702 0.062509 -0.210867 0.122466 -0.166667 0.166667 
C -0.122466 0.210867 -0.062509 0.235702 0 0.235702 
z
" style="stroke: #000000; stroke-opacity: 0.7"/>
    </defs>
    <g clip-path="url(#p49ff2a5952)">
     <use xlink:href="#m5ef42b1d48" x="182.682045" y="58.678125" style="fill: #0000ff; fill-opacity: 0.7; stroke: #000000; stroke-opacity: 0.7"/>
    </g>
   </g>
   <g id="PathCollection_36">
    <defs>
     <path id="mcbeda8e673" d="M 0 0.235702 
C 0.062509 0.235702 0.122466 0.210867 0.166667 0.166667 
C 0.210867 0.122466 0.235702 0.062509 0.235702 0 
C 0.235702 -0.062509 0.210867 -0.122466 0.166667 -0.166667 
C 0.122466 -0.210867 0.062509 -0.235702 0 -0.235702 
C -0.062509 -0.235702 -0.122466 -0.210867 -0.166667 -0.166667 
C -0.210867 -0.122466 -0.235702 -0.062509 -0.235702 0 
C -0.235702 0.062509 -0.210867 0.122466 -0.166667 0.166667 
C -0.122466 0.210867 -0.062509 0.235702 0 0.235702 
z
" style="stroke: #000000; stroke-opacity: 0.7"/>
    </defs>
    <g clip-path="url(#p49ff2a5952)">
     <use xlink:href="#mcbeda8e673" x="182.682045" y="58.678125" style="fill: #808080; fill-opacity: 0.7; stroke: #000000; stroke-opacity: 0.7"/>
    </g>
   </g>
   <g id="PathCollection_37">
    <defs>
     <path id="m2efd463c70" d="M 0 0.279393 
C 0.074096 0.279393 0.145167 0.249955 0.197561 0.197561 
C 0.249955 0.145167 0.279393 0.074096 0.279393 0 
C 0.279393 -0.074096 0.249955 -0.145167 0.197561 -0.197561 
C 0.145167 -0.249955 0.074096 -0.279393 0 -0.279393 
C -0.074096 -0.279393 -0.145167 -0.249955 -0.197561 -0.197561 
C -0.249955 -0.145167 -0.279393 -0.074096 -0.279393 0 
C -0.279393 0.074096 -0.249955 0.145167 -0.197561 0.197561 
C -0.145167 0.249955 -0.074096 0.279393 0 0.279393 
z
" style="stroke: #000000; stroke-opacity: 0.7"/>
    </defs>
    <g clip-path="url(#p49ff2a5952)">
     <use xlink:href="#m2efd463c70" x="191.136591" y="51.478125" style="fill: #0000ff; fill-opacity: 0.7; stroke: #000000; stroke-opacity: 0.7"/>
    </g>
   </g>
   <g id="PathCollection_38">
    <defs>
     <path id="mdaf4a9a797" d="M 0 0.30146 
C 0.079948 0.30146 0.156633 0.269696 0.213164 0.213164 
C 0.269696 0.156633 0.30146 0.079948 0.30146 0 
C 0.30146 -0.079948 0.269696 -0.156633 0.213164 -0.213164 
C 0.156633 -0.269696 0.079948 -0.30146 0 -0.30146 
C -0.079948 -0.30146 -0.156633 -0.269696 -0.213164 -0.213164 
C -0.269696 -0.156633 -0.30146 -0.079948 -0.30146 0 
C -0.30146 0.079948 -0.269696 0.156633 -0.213164 0.213164 
C -0.156633 0.269696 -0.079948 0.30146 0 0.30146 
z
" style="stroke: #000000; stroke-opacity: 0.7"/>
    </defs>
    <g clip-path="url(#p49ff2a5952)">
     <use xlink:href="#mdaf4a9a797" x="191.136591" y="51.478125" style="fill: #808080; fill-opacity: 0.7; stroke: #000000; stroke-opacity: 0.7"/>
    </g>
   </g>
   <g id="PathCollection_39">
    <defs>
     <path id="m7763c045d3" d="M 0 0.251009 
C 0.066568 0.251009 0.130419 0.224561 0.17749 0.17749 
C 0.224561 0.130419 0.251009 0.066568 0.251009 0 
C 0.251009 -0.066568 0.224561 -0.130419 0.17749 -0.17749 
C 0.130419 -0.224561 0.066568 -0.251009 0 -0.251009 
C -0.066568 -0.251009 -0.130419 -0.224561 -0.17749 -0.17749 
C -0.224561 -0.130419 -0.251009 -0.066568 -0.251009 0 
C -0.251009 0.066568 -0.224561 0.130419 -0.17749 0.17749 
C -0.130419 0.224561 -0.066568 0.251009 0 0.251009 
z
" style="stroke: #000000; stroke-opacity: 0.7"/>
    </defs>
    <g clip-path="url(#p49ff2a5952)">
     <use xlink:href="#m7763c045d3" x="199.591136" y="44.278125" style="fill: #0000ff; fill-opacity: 0.7; stroke: #000000; stroke-opacity: 0.7"/>
    </g>
   </g>
   <g id="PathCollection_40">
    <defs>
     <path id="m09d67dd260" d="M 0 0.261341 
C 0.069309 0.261341 0.135788 0.233805 0.184796 0.184796 
C 0.233805 0.135788 0.261341 0.069309 0.261341 0 
C 0.261341 -0.069309 0.233805 -0.135788 0.184796 -0.184796 
C 0.135788 -0.233805 0.069309 -0.261341 0 -0.261341 
C -0.069309 -0.261341 -0.135788 -0.233805 -0.184796 -0.184796 
C -0.233805 -0.135788 -0.261341 -0.069309 -0.261341 0 
C -0.261341 0.069309 -0.233805 0.135788 -0.184796 0.184796 
C -0.135788 0.233805 -0.069309 0.261341 0 0.261341 
z
" style="stroke: #000000; stroke-opacity: 0.7"/>
    </defs>
    <g clip-path="url(#p49ff2a5952)">
     <use xlink:href="#m09d67dd260" x="199.591136" y="44.278125" style="fill: #808080; fill-opacity: 0.7; stroke: #000000; stroke-opacity: 0.7"/>
    </g>
   </g>
   <g id="PathCollection_41">
    <defs>
     <path id="mb29ffedc9b" d="M 0 0.281192 
C 0.074573 0.281192 0.146102 0.251564 0.198833 0.198833 
C 0.251564 0.146102 0.281192 0.074573 0.281192 0 
C 0.281192 -0.074573 0.251564 -0.146102 0.198833 -0.198833 
C 0.146102 -0.251564 0.074573 -0.281192 0 -0.281192 
C -0.074573 -0.281192 -0.146102 -0.251564 -0.198833 -0.198833 
C -0.251564 -0.146102 -0.281192 -0.074573 -0.281192 0 
C -0.281192 0.074573 -0.251564 0.146102 -0.198833 0.198833 
C -0.146102 0.251564 -0.074573 0.281192 0 0.281192 
z
" style="stroke: #000000; stroke-opacity: 0.7"/>
    </defs>
    <g clip-path="url(#p49ff2a5952)">
     <use xlink:href="#mb29ffedc9b" x="208.045682" y="37.078125" style="fill: #008000; fill-opacity: 0.7; stroke: #000000; stroke-opacity: 0.7"/>
    </g>
   </g>
   <g id="PathCollection_42">
    <defs>
     <path id="m2d470f27d7" d="M 0 0.254926 
C 0.067607 0.254926 0.132454 0.228065 0.18026 0.18026 
C 0.228065 0.132454 0.254926 0.067607 0.254926 0 
C 0.254926 -0.067607 0.228065 -0.132454 0.18026 -0.18026 
C 0.132454 -0.228065 0.067607 -0.254926 0 -0.254926 
C -0.067607 -0.254926 -0.132454 -0.228065 -0.18026 -0.18026 
C -0.228065 -0.132454 -0.254926 -0.067607 -0.254926 0 
C -0.254926 0.067607 -0.228065 0.132454 -0.18026 0.18026 
C -0.132454 0.228065 -0.067607 0.254926 0 0.254926 
z
" style="stroke: #000000; stroke-opacity: 0.7"/>
    </defs>
    <g clip-path="url(#p49ff2a5952)">
     <use xlink:href="#m2d470f27d7" x="208.045682" y="37.078125" style="fill: #808080; fill-opacity: 0.7; stroke: #000000; stroke-opacity: 0.7"/>
    </g>
   </g>
   <g id="PathCollection_43">
    <defs>
     <path id="mb608c98e6e" d="M 0 0.28262 
C 0.074952 0.28262 0.146844 0.252841 0.199842 0.199842 
C 0.252841 0.146844 0.28262 0.074952 0.28262 0 
C 0.28262 -0.074952 0.252841 -0.146844 0.199842 -0.199842 
C 0.146844 -0.252841 0.074952 -0.28262 0 -0.28262 
C -0.074952 -0.28262 -0.146844 -0.252841 -0.199842 -0.199842 
C -0.252841 -0.146844 -0.28262 -0.074952 -0.28262 0 
C -0.28262 0.074952 -0.252841 0.146844 -0.199842 0.199842 
C -0.146844 0.252841 -0.074952 0.28262 0 0.28262 
z
" style="stroke: #000000; stroke-opacity: 0.7"/>
    </defs>
    <g clip-path="url(#p49ff2a5952)">
     <use xlink:href="#mb608c98e6e" x="216.500227" y="29.878125" style="fill: #008000; fill-opacity: 0.7; stroke: #000000; stroke-opacity: 0.7"/>
    </g>
   </g>
   <g id="PathCollection_44">
    <defs>
     <path id="m53c9323973" d="M 0 0.333333 
C 0.088401 0.333333 0.173193 0.298211 0.235702 0.235702 
C 0.298211 0.173193 0.333333 0.088401 0.333333 0 
C 0.333333 -0.088401 0.298211 -0.173193 0.235702 -0.235702 
C 0.173193 -0.298211 0.088401 -0.333333 0 -0.333333 
C -0.088401 -0.333333 -0.173193 -0.298211 -0.235702 -0.235702 
C -0.298211 -0.173193 -0.333333 -0.088401 -0.333333 0 
C -0.333333 0.088401 -0.298211 0.173193 -0.235702 0.235702 
C -0.173193 0.298211 -0.088401 0.333333 0 0.333333 
z
" style="stroke: #000000; stroke-opacity: 0.7"/>
    </defs>
    <g clip-path="url(#p49ff2a5952)">
     <use xlink:href="#m53c9323973" x="216.500227" y="29.878125" style="fill: #808080; fill-opacity: 0.7; stroke: #000000; stroke-opacity: 0.7"/>
    </g>
   </g>
   <g id="matplotlib.axis_1">
    <g id="xtick_1">
     <g id="line2d_1">
      <defs>
       <path id="ma14463f8c3" d="M 0 0 
L 0 -3.5 
" style="stroke: #000000; stroke-width: 0.5"/>
      </defs>
      <g>
       <use xlink:href="#ma14463f8c3" x="38.954773" y="188.638125" style="stroke: #000000; stroke-width: 0.5"/>
      </g>
     </g>
     <g id="text_1">
      <!-- 5 -->
      <g transform="translate(37.046023 196.697187) scale(0.06 -0.06)">
       <defs>
        <path id="DejaVuSans-35" d="M 691 4666 
L 3169 4666 
L 3169 4134 
L 1269 4134 
L 1269 2991 
Q 1406 3038 1543 3061 
Q 1681 3084 1819 3084 
Q 2600 3084 3056 2656 
Q 3513 2228 3513 1497 
Q 3513 744 3044 326 
Q 2575 -91 1722 -91 
Q 1428 -91 1123 -41 
Q 819 9 494 109 
L 494 744 
Q 775 591 1075 516 
Q 1375 441 1709 441 
Q 2250 441 2565 725 
Q 2881 1009 2881 1497 
Q 2881 1984 2565 2268 
Q 2250 2553 1709 2553 
Q 1456 2553 1204 2497 
Q 953 2441 691 2322 
L 691 4666 
z
" transform="scale(0.015625)"/>
       </defs>
       <use xlink:href="#DejaVuSans-35"/>
      </g>
     </g>
    </g>
    <g id="xtick_2">
     <g id="line2d_2">
      <g>
       <use xlink:href="#ma14463f8c3" x="81.2275" y="188.638125" style="stroke: #000000; stroke-width: 0.5"/>
      </g>
     </g>
     <g id="text_2">
      <!-- 10 -->
      <g transform="translate(77.41 196.697187) scale(0.06 -0.06)">
       <defs>
        <path id="DejaVuSans-31" d="M 794 531 
L 1825 531 
L 1825 4091 
L 703 3866 
L 703 4441 
L 1819 4666 
L 2450 4666 
L 2450 531 
L 3481 531 
L 3481 0 
L 794 0 
L 794 531 
z
" transform="scale(0.015625)"/>
        <path id="DejaVuSans-30" d="M 2034 4250 
Q 1547 4250 1301 3770 
Q 1056 3291 1056 2328 
Q 1056 1369 1301 889 
Q 1547 409 2034 409 
Q 2525 409 2770 889 
Q 3016 1369 3016 2328 
Q 3016 3291 2770 3770 
Q 2525 4250 2034 4250 
z
M 2034 4750 
Q 2819 4750 3233 4129 
Q 3647 3509 3647 2328 
Q 3647 1150 3233 529 
Q 2819 -91 2034 -91 
Q 1250 -91 836 529 
Q 422 1150 422 2328 
Q 422 3509 836 4129 
Q 1250 4750 2034 4750 
z
" transform="scale(0.015625)"/>
       </defs>
       <use xlink:href="#DejaVuSans-31"/>
       <use xlink:href="#DejaVuSans-30" x="63.623047"/>
      </g>
     </g>
    </g>
    <g id="xtick_3">
     <g id="line2d_3">
      <g>
       <use xlink:href="#ma14463f8c3" x="123.500227" y="188.638125" style="stroke: #000000; stroke-width: 0.5"/>
      </g>
     </g>
     <g id="text_3">
      <!-- 15 -->
      <g transform="translate(119.682727 196.697187) scale(0.06 -0.06)">
       <use xlink:href="#DejaVuSans-31"/>
       <use xlink:href="#DejaVuSans-35" x="63.623047"/>
      </g>
     </g>
    </g>
    <g id="xtick_4">
     <g id="line2d_4">
      <g>
       <use xlink:href="#ma14463f8c3" x="165.772955" y="188.638125" style="stroke: #000000; stroke-width: 0.5"/>
      </g>
     </g>
     <g id="text_4">
      <!-- 20 -->
      <g transform="translate(161.955455 196.697187) scale(0.06 -0.06)">
       <defs>
        <path id="DejaVuSans-32" d="M 1228 531 
L 3431 531 
L 3431 0 
L 469 0 
L 469 531 
Q 828 903 1448 1529 
Q 2069 2156 2228 2338 
Q 2531 2678 2651 2914 
Q 2772 3150 2772 3378 
Q 2772 3750 2511 3984 
Q 2250 4219 1831 4219 
Q 1534 4219 1204 4116 
Q 875 4013 500 3803 
L 500 4441 
Q 881 4594 1212 4672 
Q 1544 4750 1819 4750 
Q 2544 4750 2975 4387 
Q 3406 4025 3406 3419 
Q 3406 3131 3298 2873 
Q 3191 2616 2906 2266 
Q 2828 2175 2409 1742 
Q 1991 1309 1228 531 
z
" transform="scale(0.015625)"/>
       </defs>
       <use xlink:href="#DejaVuSans-32"/>
       <use xlink:href="#DejaVuSans-30" x="63.623047"/>
      </g>
     </g>
    </g>
    <g id="xtick_5">
     <g id="line2d_5">
      <g>
       <use xlink:href="#ma14463f8c3" x="208.045682" y="188.638125" style="stroke: #000000; stroke-width: 0.5"/>
      </g>
     </g>
     <g id="text_5">
      <!-- 25 -->
      <g transform="translate(204.228182 196.697187) scale(0.06 -0.06)">
       <use xlink:href="#DejaVuSans-32"/>
       <use xlink:href="#DejaVuSans-35" x="63.623047"/>
      </g>
     </g>
    </g>
    <g id="text_6">
     <!-- SECIS Distance -->
     <g transform="translate(97.386875 208.02375) scale(0.08 -0.08)">
      <defs>
       <path id="DejaVuSans-53" d="M 3425 4513 
L 3425 3897 
Q 3066 4069 2747 4153 
Q 2428 4238 2131 4238 
Q 1616 4238 1336 4038 
Q 1056 3838 1056 3469 
Q 1056 3159 1242 3001 
Q 1428 2844 1947 2747 
L 2328 2669 
Q 3034 2534 3370 2195 
Q 3706 1856 3706 1288 
Q 3706 609 3251 259 
Q 2797 -91 1919 -91 
Q 1588 -91 1214 -16 
Q 841 59 441 206 
L 441 856 
Q 825 641 1194 531 
Q 1563 422 1919 422 
Q 2459 422 2753 634 
Q 3047 847 3047 1241 
Q 3047 1584 2836 1778 
Q 2625 1972 2144 2069 
L 1759 2144 
Q 1053 2284 737 2584 
Q 422 2884 422 3419 
Q 422 4038 858 4394 
Q 1294 4750 2059 4750 
Q 2388 4750 2728 4690 
Q 3069 4631 3425 4513 
z
" transform="scale(0.015625)"/>
       <path id="DejaVuSans-45" d="M 628 4666 
L 3578 4666 
L 3578 4134 
L 1259 4134 
L 1259 2753 
L 3481 2753 
L 3481 2222 
L 1259 2222 
L 1259 531 
L 3634 531 
L 3634 0 
L 628 0 
L 628 4666 
z
" transform="scale(0.015625)"/>
       <path id="DejaVuSans-43" d="M 4122 4306 
L 4122 3641 
Q 3803 3938 3442 4084 
Q 3081 4231 2675 4231 
Q 1875 4231 1450 3742 
Q 1025 3253 1025 2328 
Q 1025 1406 1450 917 
Q 1875 428 2675 428 
Q 3081 428 3442 575 
Q 3803 722 4122 1019 
L 4122 359 
Q 3791 134 3420 21 
Q 3050 -91 2638 -91 
Q 1578 -91 968 557 
Q 359 1206 359 2328 
Q 359 3453 968 4101 
Q 1578 4750 2638 4750 
Q 3056 4750 3426 4639 
Q 3797 4528 4122 4306 
z
" transform="scale(0.015625)"/>
       <path id="DejaVuSans-49" d="M 628 4666 
L 1259 4666 
L 1259 0 
L 628 0 
L 628 4666 
z
" transform="scale(0.015625)"/>
       <path id="DejaVuSans-20" transform="scale(0.015625)"/>
       <path id="DejaVuSans-44" d="M 1259 4147 
L 1259 519 
L 2022 519 
Q 2988 519 3436 956 
Q 3884 1394 3884 2338 
Q 3884 3275 3436 3711 
Q 2988 4147 2022 4147 
L 1259 4147 
z
M 628 4666 
L 1925 4666 
Q 3281 4666 3915 4102 
Q 4550 3538 4550 2338 
Q 4550 1131 3912 565 
Q 3275 0 1925 0 
L 628 0 
L 628 4666 
z
" transform="scale(0.015625)"/>
       <path id="DejaVuSans-69" d="M 603 3500 
L 1178 3500 
L 1178 0 
L 603 0 
L 603 3500 
z
M 603 4863 
L 1178 4863 
L 1178 4134 
L 603 4134 
L 603 4863 
z
" transform="scale(0.015625)"/>
       <path id="DejaVuSans-73" d="M 2834 3397 
L 2834 2853 
Q 2591 2978 2328 3040 
Q 2066 3103 1784 3103 
Q 1356 3103 1142 2972 
Q 928 2841 928 2578 
Q 928 2378 1081 2264 
Q 1234 2150 1697 2047 
L 1894 2003 
Q 2506 1872 2764 1633 
Q 3022 1394 3022 966 
Q 3022 478 2636 193 
Q 2250 -91 1575 -91 
Q 1294 -91 989 -36 
Q 684 19 347 128 
L 347 722 
Q 666 556 975 473 
Q 1284 391 1588 391 
Q 1994 391 2212 530 
Q 2431 669 2431 922 
Q 2431 1156 2273 1281 
Q 2116 1406 1581 1522 
L 1381 1569 
Q 847 1681 609 1914 
Q 372 2147 372 2553 
Q 372 3047 722 3315 
Q 1072 3584 1716 3584 
Q 2034 3584 2315 3537 
Q 2597 3491 2834 3397 
z
" transform="scale(0.015625)"/>
       <path id="DejaVuSans-74" d="M 1172 4494 
L 1172 3500 
L 2356 3500 
L 2356 3053 
L 1172 3053 
L 1172 1153 
Q 1172 725 1289 603 
Q 1406 481 1766 481 
L 2356 481 
L 2356 0 
L 1766 0 
Q 1100 0 847 248 
Q 594 497 594 1153 
L 594 3053 
L 172 3053 
L 172 3500 
L 594 3500 
L 594 4494 
L 1172 4494 
z
" transform="scale(0.015625)"/>
       <path id="DejaVuSans-61" d="M 2194 1759 
Q 1497 1759 1228 1600 
Q 959 1441 959 1056 
Q 959 750 1161 570 
Q 1363 391 1709 391 
Q 2188 391 2477 730 
Q 2766 1069 2766 1631 
L 2766 1759 
L 2194 1759 
z
M 3341 1997 
L 3341 0 
L 2766 0 
L 2766 531 
Q 2569 213 2275 61 
Q 1981 -91 1556 -91 
Q 1019 -91 701 211 
Q 384 513 384 1019 
Q 384 1609 779 1909 
Q 1175 2209 1959 2209 
L 2766 2209 
L 2766 2266 
Q 2766 2663 2505 2880 
Q 2244 3097 1772 3097 
Q 1472 3097 1187 3025 
Q 903 2953 641 2809 
L 641 3341 
Q 956 3463 1253 3523 
Q 1550 3584 1831 3584 
Q 2591 3584 2966 3190 
Q 3341 2797 3341 1997 
z
" transform="scale(0.015625)"/>
       <path id="DejaVuSans-6e" d="M 3513 2113 
L 3513 0 
L 2938 0 
L 2938 2094 
Q 2938 2591 2744 2837 
Q 2550 3084 2163 3084 
Q 1697 3084 1428 2787 
Q 1159 2491 1159 1978 
L 1159 0 
L 581 0 
L 581 3500 
L 1159 3500 
L 1159 2956 
Q 1366 3272 1645 3428 
Q 1925 3584 2291 3584 
Q 2894 3584 3203 3211 
Q 3513 2838 3513 2113 
z
" transform="scale(0.015625)"/>
       <path id="DejaVuSans-63" d="M 3122 3366 
L 3122 2828 
Q 2878 2963 2633 3030 
Q 2388 3097 2138 3097 
Q 1578 3097 1268 2742 
Q 959 2388 959 1747 
Q 959 1106 1268 751 
Q 1578 397 2138 397 
Q 2388 397 2633 464 
Q 2878 531 3122 666 
L 3122 134 
Q 2881 22 2623 -34 
Q 2366 -91 2075 -91 
Q 1284 -91 818 406 
Q 353 903 353 1747 
Q 353 2603 823 3093 
Q 1294 3584 2113 3584 
Q 2378 3584 2631 3529 
Q 2884 3475 3122 3366 
z
" transform="scale(0.015625)"/>
       <path id="DejaVuSans-65" d="M 3597 1894 
L 3597 1613 
L 953 1613 
Q 991 1019 1311 708 
Q 1631 397 2203 397 
Q 2534 397 2845 478 
Q 3156 559 3463 722 
L 3463 178 
Q 3153 47 2828 -22 
Q 2503 -91 2169 -91 
Q 1331 -91 842 396 
Q 353 884 353 1716 
Q 353 2575 817 3079 
Q 1281 3584 2069 3584 
Q 2775 3584 3186 3129 
Q 3597 2675 3597 1894 
z
M 3022 2063 
Q 3016 2534 2758 2815 
Q 2500 3097 2075 3097 
Q 1594 3097 1305 2825 
Q 1016 2553 972 2059 
L 3022 2063 
z
" transform="scale(0.015625)"/>
      </defs>
      <use xlink:href="#DejaVuSans-53"/>
      <use xlink:href="#DejaVuSans-45" x="63.476562"/>
      <use xlink:href="#DejaVuSans-43" x="126.660156"/>
      <use xlink:href="#DejaVuSans-49" x="196.484375"/>
      <use xlink:href="#DejaVuSans-53" x="225.976562"/>
      <use xlink:href="#DejaVuSans-20" x="289.453125"/>
      <use xlink:href="#DejaVuSans-44" x="321.240234"/>
      <use xlink:href="#DejaVuSans-69" x="398.242188"/>
      <use xlink:href="#DejaVuSans-73" x="426.025391"/>
      <use xlink:href="#DejaVuSans-74" x="478.125"/>
      <use xlink:href="#DejaVuSans-61" x="517.333984"/>
      <use xlink:href="#DejaVuSans-6e" x="578.613281"/>
      <use xlink:href="#DejaVuSans-63" x="641.992188"/>
      <use xlink:href="#DejaVuSans-65" x="696.972656"/>
     </g>
    </g>
   </g>
   <g id="matplotlib.axis_2">
    <g id="ytick_1">
     <g id="line2d_6">
      <defs>
       <path id="m400b4625a7" d="M 0 0 
L 3.5 0 
" style="stroke: #000000; stroke-width: 0.5"/>
      </defs>
      <g>
       <use xlink:href="#m400b4625a7" x="30.0775" y="166.678125" style="stroke: #000000; stroke-width: 0.5"/>
      </g>
     </g>
     <g id="text_7">
      <!-- 4 -->
      <g transform="translate(22.76 168.957656) scale(0.06 -0.06)">
       <defs>
        <path id="DejaVuSans-34" d="M 2419 4116 
L 825 1625 
L 2419 1625 
L 2419 4116 
z
M 2253 4666 
L 3047 4666 
L 3047 1625 
L 3713 1625 
L 3713 1100 
L 3047 1100 
L 3047 0 
L 2419 0 
L 2419 1100 
L 313 1100 
L 313 1709 
L 2253 4666 
z
" transform="scale(0.015625)"/>
       </defs>
       <use xlink:href="#DejaVuSans-34"/>
      </g>
     </g>
    </g>
    <g id="ytick_2">
     <g id="line2d_7">
      <g>
       <use xlink:href="#m400b4625a7" x="30.0775" y="137.878125" style="stroke: #000000; stroke-width: 0.5"/>
      </g>
     </g>
     <g id="text_8">
      <!-- 6 -->
      <g transform="translate(22.76 140.157656) scale(0.06 -0.06)">
       <defs>
        <path id="DejaVuSans-36" d="M 2113 2584 
Q 1688 2584 1439 2293 
Q 1191 2003 1191 1497 
Q 1191 994 1439 701 
Q 1688 409 2113 409 
Q 2538 409 2786 701 
Q 3034 994 3034 1497 
Q 3034 2003 2786 2293 
Q 2538 2584 2113 2584 
z
M 3366 4563 
L 3366 3988 
Q 3128 4100 2886 4159 
Q 2644 4219 2406 4219 
Q 1781 4219 1451 3797 
Q 1122 3375 1075 2522 
Q 1259 2794 1537 2939 
Q 1816 3084 2150 3084 
Q 2853 3084 3261 2657 
Q 3669 2231 3669 1497 
Q 3669 778 3244 343 
Q 2819 -91 2113 -91 
Q 1303 -91 875 529 
Q 447 1150 447 2328 
Q 447 3434 972 4092 
Q 1497 4750 2381 4750 
Q 2619 4750 2861 4703 
Q 3103 4656 3366 4563 
z
" transform="scale(0.015625)"/>
       </defs>
       <use xlink:href="#DejaVuSans-36"/>
      </g>
     </g>
    </g>
    <g id="ytick_3">
     <g id="line2d_8">
      <g>
       <use xlink:href="#m400b4625a7" x="30.0775" y="109.078125" style="stroke: #000000; stroke-width: 0.5"/>
      </g>
     </g>
     <g id="text_9">
      <!-- 8 -->
      <g transform="translate(22.76 111.357656) scale(0.06 -0.06)">
       <defs>
        <path id="DejaVuSans-38" d="M 2034 2216 
Q 1584 2216 1326 1975 
Q 1069 1734 1069 1313 
Q 1069 891 1326 650 
Q 1584 409 2034 409 
Q 2484 409 2743 651 
Q 3003 894 3003 1313 
Q 3003 1734 2745 1975 
Q 2488 2216 2034 2216 
z
M 1403 2484 
Q 997 2584 770 2862 
Q 544 3141 544 3541 
Q 544 4100 942 4425 
Q 1341 4750 2034 4750 
Q 2731 4750 3128 4425 
Q 3525 4100 3525 3541 
Q 3525 3141 3298 2862 
Q 3072 2584 2669 2484 
Q 3125 2378 3379 2068 
Q 3634 1759 3634 1313 
Q 3634 634 3220 271 
Q 2806 -91 2034 -91 
Q 1263 -91 848 271 
Q 434 634 434 1313 
Q 434 1759 690 2068 
Q 947 2378 1403 2484 
z
M 1172 3481 
Q 1172 3119 1398 2916 
Q 1625 2713 2034 2713 
Q 2441 2713 2670 2916 
Q 2900 3119 2900 3481 
Q 2900 3844 2670 4047 
Q 2441 4250 2034 4250 
Q 1625 4250 1398 4047 
Q 1172 3844 1172 3481 
z
" transform="scale(0.015625)"/>
       </defs>
       <use xlink:href="#DejaVuSans-38"/>
      </g>
     </g>
    </g>
    <g id="ytick_4">
     <g id="line2d_9">
      <g>
       <use xlink:href="#m400b4625a7" x="30.0775" y="80.278125" style="stroke: #000000; stroke-width: 0.5"/>
      </g>
     </g>
     <g id="text_10">
      <!-- 10 -->
      <g transform="translate(18.9425 82.557656) scale(0.06 -0.06)">
       <use xlink:href="#DejaVuSans-31"/>
       <use xlink:href="#DejaVuSans-30" x="63.623047"/>
      </g>
     </g>
    </g>
    <g id="ytick_5">
     <g id="line2d_10">
      <g>
       <use xlink:href="#m400b4625a7" x="30.0775" y="51.478125" style="stroke: #000000; stroke-width: 0.5"/>
      </g>
     </g>
     <g id="text_11">
      <!-- 12 -->
      <g transform="translate(18.9425 53.757656) scale(0.06 -0.06)">
       <use xlink:href="#DejaVuSans-31"/>
       <use xlink:href="#DejaVuSans-32" x="63.623047"/>
      </g>
     </g>
    </g>
    <g id="ytick_6">
     <g id="line2d_11">
      <g>
       <use xlink:href="#m400b4625a7" x="30.0775" y="22.678125" style="stroke: #000000; stroke-width: 0.5"/>
      </g>
     </g>
     <g id="text_12">
      <!-- 14 -->
      <g transform="translate(18.9425 24.957656) scale(0.06 -0.06)">
       <use xlink:href="#DejaVuSans-31"/>
       <use xlink:href="#DejaVuSans-34" x="63.623047"/>
      </g>
     </g>
    </g>
    <g id="text_13">
     <!-- CA Distance -->
     <g transform="translate(13.27875 129.76875) rotate(-90) scale(0.08 -0.08)">
      <defs>
       <path id="DejaVuSans-41" d="M 2188 4044 
L 1331 1722 
L 3047 1722 
L 2188 4044 
z
M 1831 4666 
L 2547 4666 
L 4325 0 
L 3669 0 
L 3244 1197 
L 1141 1197 
L 716 0 
L 50 0 
L 1831 4666 
z
" transform="scale(0.015625)"/>
      </defs>
      <use xlink:href="#DejaVuSans-43"/>
      <use xlink:href="#DejaVuSans-41" x="69.824219"/>
      <use xlink:href="#DejaVuSans-20" x="138.232422"/>
      <use xlink:href="#DejaVuSans-44" x="170.019531"/>
      <use xlink:href="#DejaVuSans-69" x="247.021484"/>
      <use xlink:href="#DejaVuSans-73" x="274.804688"/>
      <use xlink:href="#DejaVuSans-74" x="326.904297"/>
      <use xlink:href="#DejaVuSans-61" x="366.113281"/>
      <use xlink:href="#DejaVuSans-6e" x="427.392578"/>
      <use xlink:href="#DejaVuSans-63" x="490.771484"/>
      <use xlink:href="#DejaVuSans-65" x="545.751953"/>
     </g>
    </g>
   </g>
   <g id="patch_3">
    <path d="M 30.0775 188.638125 
L 30.0775 22.318125 
" style="fill: none; stroke: #000000; stroke-width: 0.5; stroke-linejoin: miter; stroke-linecap: square"/>
   </g>
   <g id="patch_4">
    <path d="M 225.3775 188.638125 
L 225.3775 22.318125 
" style="fill: none; stroke: #000000; stroke-width: 0.5; stroke-linejoin: miter; stroke-linecap: square"/>
   </g>
   <g id="patch_5">
    <path d="M 30.0775 188.638125 
L 225.3775 188.638125 
" style="fill: none; stroke: #000000; stroke-width: 0.5; stroke-linejoin: miter; stroke-linecap: square"/>
   </g>
   <g id="patch_6">
    <path d="M 30.0775 22.318125 
L 225.3775 22.318125 
" style="fill: none; stroke: #000000; stroke-width: 0.5; stroke-linejoin: miter; stroke-linecap: square"/>
   </g>
   <g id="text_14">
    <!-- Mutational Landscape of GPX6 -->
    <g transform="translate(35.95 16.318125) scale(0.12 -0.12)">
     <defs>
      <path id="DejaVuSans-4d" d="M 628 4666 
L 1569 4666 
L 2759 1491 
L 3956 4666 
L 4897 4666 
L 4897 0 
L 4281 0 
L 4281 4097 
L 3078 897 
L 2444 897 
L 1241 4097 
L 1241 0 
L 628 0 
L 628 4666 
z
" transform="scale(0.015625)"/>
      <path id="DejaVuSans-75" d="M 544 1381 
L 544 3500 
L 1119 3500 
L 1119 1403 
Q 1119 906 1312 657 
Q 1506 409 1894 409 
Q 2359 409 2629 706 
Q 2900 1003 2900 1516 
L 2900 3500 
L 3475 3500 
L 3475 0 
L 2900 0 
L 2900 538 
Q 2691 219 2414 64 
Q 2138 -91 1772 -91 
Q 1169 -91 856 284 
Q 544 659 544 1381 
z
M 1991 3584 
L 1991 3584 
z
" transform="scale(0.015625)"/>
      <path id="DejaVuSans-6f" d="M 1959 3097 
Q 1497 3097 1228 2736 
Q 959 2375 959 1747 
Q 959 1119 1226 758 
Q 1494 397 1959 397 
Q 2419 397 2687 759 
Q 2956 1122 2956 1747 
Q 2956 2369 2687 2733 
Q 2419 3097 1959 3097 
z
M 1959 3584 
Q 2709 3584 3137 3096 
Q 3566 2609 3566 1747 
Q 3566 888 3137 398 
Q 2709 -91 1959 -91 
Q 1206 -91 779 398 
Q 353 888 353 1747 
Q 353 2609 779 3096 
Q 1206 3584 1959 3584 
z
" transform="scale(0.015625)"/>
      <path id="DejaVuSans-6c" d="M 603 4863 
L 1178 4863 
L 1178 0 
L 603 0 
L 603 4863 
z
" transform="scale(0.015625)"/>
      <path id="DejaVuSans-4c" d="M 628 4666 
L 1259 4666 
L 1259 531 
L 3531 531 
L 3531 0 
L 628 0 
L 628 4666 
z
" transform="scale(0.015625)"/>
      <path id="DejaVuSans-64" d="M 2906 2969 
L 2906 4863 
L 3481 4863 
L 3481 0 
L 2906 0 
L 2906 525 
Q 2725 213 2448 61 
Q 2172 -91 1784 -91 
Q 1150 -91 751 415 
Q 353 922 353 1747 
Q 353 2572 751 3078 
Q 1150 3584 1784 3584 
Q 2172 3584 2448 3432 
Q 2725 3281 2906 2969 
z
M 947 1747 
Q 947 1113 1208 752 
Q 1469 391 1925 391 
Q 2381 391 2643 752 
Q 2906 1113 2906 1747 
Q 2906 2381 2643 2742 
Q 2381 3103 1925 3103 
Q 1469 3103 1208 2742 
Q 947 2381 947 1747 
z
" transform="scale(0.015625)"/>
      <path id="DejaVuSans-70" d="M 1159 525 
L 1159 -1331 
L 581 -1331 
L 581 3500 
L 1159 3500 
L 1159 2969 
Q 1341 3281 1617 3432 
Q 1894 3584 2278 3584 
Q 2916 3584 3314 3078 
Q 3713 2572 3713 1747 
Q 3713 922 3314 415 
Q 2916 -91 2278 -91 
Q 1894 -91 1617 61 
Q 1341 213 1159 525 
z
M 3116 1747 
Q 3116 2381 2855 2742 
Q 2594 3103 2138 3103 
Q 1681 3103 1420 2742 
Q 1159 2381 1159 1747 
Q 1159 1113 1420 752 
Q 1681 391 2138 391 
Q 2594 391 2855 752 
Q 3116 1113 3116 1747 
z
" transform="scale(0.015625)"/>
      <path id="DejaVuSans-66" d="M 2375 4863 
L 2375 4384 
L 1825 4384 
Q 1516 4384 1395 4259 
Q 1275 4134 1275 3809 
L 1275 3500 
L 2222 3500 
L 2222 3053 
L 1275 3053 
L 1275 0 
L 697 0 
L 697 3053 
L 147 3053 
L 147 3500 
L 697 3500 
L 697 3744 
Q 697 4328 969 4595 
Q 1241 4863 1831 4863 
L 2375 4863 
z
" transform="scale(0.015625)"/>
      <path id="DejaVuSans-47" d="M 3809 666 
L 3809 1919 
L 2778 1919 
L 2778 2438 
L 4434 2438 
L 4434 434 
Q 4069 175 3628 42 
Q 3188 -91 2688 -91 
Q 1594 -91 976 548 
Q 359 1188 359 2328 
Q 359 3472 976 4111 
Q 1594 4750 2688 4750 
Q 3144 4750 3555 4637 
Q 3966 4525 4313 4306 
L 4313 3634 
Q 3963 3931 3569 4081 
Q 3175 4231 2741 4231 
Q 1884 4231 1454 3753 
Q 1025 3275 1025 2328 
Q 1025 1384 1454 906 
Q 1884 428 2741 428 
Q 3075 428 3337 486 
Q 3600 544 3809 666 
z
" transform="scale(0.015625)"/>
      <path id="DejaVuSans-50" d="M 1259 4147 
L 1259 2394 
L 2053 2394 
Q 2494 2394 2734 2622 
Q 2975 2850 2975 3272 
Q 2975 3691 2734 3919 
Q 2494 4147 2053 4147 
L 1259 4147 
z
M 628 4666 
L 2053 4666 
Q 2838 4666 3239 4311 
Q 3641 3956 3641 3272 
Q 3641 2581 3239 2228 
Q 2838 1875 2053 1875 
L 1259 1875 
L 1259 0 
L 628 0 
L 628 4666 
z
" transform="scale(0.015625)"/>
      <path id="DejaVuSans-58" d="M 403 4666 
L 1081 4666 
L 2241 2931 
L 3406 4666 
L 4084 4666 
L 2584 2425 
L 4184 0 
L 3506 0 
L 2194 1984 
L 872 0 
L 191 0 
L 1856 2491 
L 403 4666 
z
" transform="scale(0.015625)"/>
     </defs>
     <use xlink:href="#DejaVuSans-4d"/>
     <use xlink:href="#DejaVuSans-75" x="86.279297"/>
     <use xlink:href="#DejaVuSans-74" x="149.658203"/>
     <use xlink:href="#DejaVuSans-61" x="188.867188"/>
     <use xlink:href="#DejaVuSans-74" x="250.146484"/>
     <use xlink:href="#DejaVuSans-69" x="289.355469"/>
     <use xlink:href="#DejaVuSans-6f" x="317.138672"/>
     <use xlink:href="#DejaVuSans-6e" x="378.320312"/>
     <use xlink:href="#DejaVuSans-61" x="441.699219"/>
     <use xlink:href="#DejaVuSans-6c" x="502.978516"/>
     <use xlink:href="#DejaVuSans-20" x="530.761719"/>
     <use xlink:href="#DejaVuSans-4c" x="562.548828"/>
     <use xlink:href="#DejaVuSans-61" x="618.261719"/>
     <use xlink:href="#DejaVuSans-6e" x="679.541016"/>
     <use xlink:href="#DejaVuSans-64" x="742.919922"/>
     <use xlink:href="#DejaVuSans-73" x="806.396484"/>
     <use xlink:href="#DejaVuSans-63" x="858.496094"/>
     <use xlink:href="#DejaVuSans-61" x="913.476562"/>
     <use xlink:href="#DejaVuSans-70" x="974.755859"/>
     <use xlink:href="#DejaVuSans-65" x="1038.232422"/>
     <use xlink:href="#DejaVuSans-20" x="1099.755859"/>
     <use xlink:href="#DejaVuSans-6f" x="1131.542969"/>
     <use xlink:href="#DejaVuSans-66" x="1192.724609"/>
     <use xlink:href="#DejaVuSans-20" x="1227.929688"/>
     <use xlink:href="#DejaVuSans-47" x="1259.716797"/>
     <use xlink:href="#DejaVuSans-50" x="1337.207031"/>
     <use xlink:href="#DejaVuSans-58" x="1397.509766"/>
     <use xlink:href="#DejaVuSans-36" x="1466.015625"/>
    </g>
   </g>
   <g id="legend_1">
    <g id="text_15">
     <!-- Mutations -->
     <g transform="translate(56.079062 31.517344) scale(0.05 -0.05)">
      <use xlink:href="#DejaVuSans-4d"/>
      <use xlink:href="#DejaVuSans-75" x="86.279297"/>
      <use xlink:href="#DejaVuSans-74" x="149.658203"/>
      <use xlink:href="#DejaVuSans-61" x="188.867188"/>
      <use xlink:href="#DejaVuSans-74" x="250.146484"/>
      <use xlink:href="#DejaVuSans-69" x="289.355469"/>
      <use xlink:href="#DejaVuSans-6f" x="317.138672"/>
      <use xlink:href="#DejaVuSans-6e" x="378.320312"/>
      <use xlink:href="#DejaVuSans-73" x="441.699219"/>
     </g>
    </g>
    <g id="PathCollection_45">
     <g>
      <use xlink:href="#m32284d62f7" x="41.4775" y="38.54125" style="fill: #ff00ff; fill-opacity: 0.7; stroke: #000000; stroke-opacity: 0.7"/>
     </g>
    </g>
    <g id="text_16">
     <!-- humansec (dG*) -->
     <g transform="translate(52.2775 40.11625) scale(0.06 -0.06)">
      <defs>
       <path id="DejaVuSans-68" d="M 3513 2113 
L 3513 0 
L 2938 0 
L 2938 2094 
Q 2938 2591 2744 2837 
Q 2550 3084 2163 3084 
Q 1697 3084 1428 2787 
Q 1159 2491 1159 1978 
L 1159 0 
L 581 0 
L 581 4863 
L 1159 4863 
L 1159 2956 
Q 1366 3272 1645 3428 
Q 1925 3584 2291 3584 
Q 2894 3584 3203 3211 
Q 3513 2838 3513 2113 
z
" transform="scale(0.015625)"/>
       <path id="DejaVuSans-6d" d="M 3328 2828 
Q 3544 3216 3844 3400 
Q 4144 3584 4550 3584 
Q 5097 3584 5394 3201 
Q 5691 2819 5691 2113 
L 5691 0 
L 5113 0 
L 5113 2094 
Q 5113 2597 4934 2840 
Q 4756 3084 4391 3084 
Q 3944 3084 3684 2787 
Q 3425 2491 3425 1978 
L 3425 0 
L 2847 0 
L 2847 2094 
Q 2847 2600 2669 2842 
Q 2491 3084 2119 3084 
Q 1678 3084 1418 2786 
Q 1159 2488 1159 1978 
L 1159 0 
L 581 0 
L 581 3500 
L 1159 3500 
L 1159 2956 
Q 1356 3278 1631 3431 
Q 1906 3584 2284 3584 
Q 2666 3584 2933 3390 
Q 3200 3197 3328 2828 
z
" transform="scale(0.015625)"/>
       <path id="DejaVuSans-28" d="M 1984 4856 
Q 1566 4138 1362 3434 
Q 1159 2731 1159 2009 
Q 1159 1288 1364 580 
Q 1569 -128 1984 -844 
L 1484 -844 
Q 1016 -109 783 600 
Q 550 1309 550 2009 
Q 550 2706 781 3412 
Q 1013 4119 1484 4856 
L 1984 4856 
z
" transform="scale(0.015625)"/>
       <path id="DejaVuSans-2a" d="M 3009 3897 
L 1888 3291 
L 3009 2681 
L 2828 2375 
L 1778 3009 
L 1778 1831 
L 1422 1831 
L 1422 3009 
L 372 2375 
L 191 2681 
L 1313 3291 
L 191 3897 
L 372 4206 
L 1422 3572 
L 1422 4750 
L 1778 4750 
L 1778 3572 
L 2828 4206 
L 3009 3897 
z
" transform="scale(0.015625)"/>
       <path id="DejaVuSans-29" d="M 513 4856 
L 1013 4856 
Q 1481 4119 1714 3412 
Q 1947 2706 1947 2009 
Q 1947 1309 1714 600 
Q 1481 -109 1013 -844 
L 513 -844 
Q 928 -128 1133 580 
Q 1338 1288 1338 2009 
Q 1338 2731 1133 3434 
Q 928 4138 513 4856 
z
" transform="scale(0.015625)"/>
      </defs>
      <use xlink:href="#DejaVuSans-68"/>
      <use xlink:href="#DejaVuSans-75" x="63.378906"/>
      <use xlink:href="#DejaVuSans-6d" x="126.757812"/>
      <use xlink:href="#DejaVuSans-61" x="224.169922"/>
      <use xlink:href="#DejaVuSans-6e" x="285.449219"/>
      <use xlink:href="#DejaVuSans-73" x="348.828125"/>
      <use xlink:href="#DejaVuSans-65" x="400.927734"/>
      <use xlink:href="#DejaVuSans-63" x="462.451172"/>
      <use xlink:href="#DejaVuSans-20" x="517.431641"/>
      <use xlink:href="#DejaVuSans-28" x="549.21875"/>
      <use xlink:href="#DejaVuSans-64" x="588.232422"/>
      <use xlink:href="#DejaVuSans-47" x="651.708984"/>
      <use xlink:href="#DejaVuSans-2a" x="729.199219"/>
      <use xlink:href="#DejaVuSans-29" x="779.199219"/>
     </g>
    </g>
    <g id="PathCollection_46">
     <g>
      <use xlink:href="#m32284d62f7" x="41.4775" y="47.348125" style="fill: #ff00ff; fill-opacity: 0.7; stroke: #000000; stroke-opacity: 0.7"/>
     </g>
    </g>
    <g id="text_17">
     <!-- humansec (dG) -->
     <g transform="translate(52.2775 48.923125) scale(0.06 -0.06)">
      <defs>
       <path id="DejaVuSans-2080" d="M 1781 2115 
Q 1625 2384 1309 2384 
Q 994 2384 838 2115 
Q 678 1846 678 1309 
Q 678 768 838 500 
Q 994 231 1309 231 
Q 1625 231 1781 500 
Q 1941 768 1941 1309 
Q 1941 1846 1781 2115 
z
M 1309 2662 
Q 1813 2662 2078 2315 
Q 2344 1968 2344 1309 
Q 2344 646 2078 299 
Q 1813 -47 1309 -47 
Q 803 -47 537 299 
Q 272 646 272 1309 
Q 272 1968 537 2315 
Q 803 2662 1309 2662 
z
" transform="scale(0.015625)"/>
      </defs>
      <use xlink:href="#DejaVuSans-68"/>
      <use xlink:href="#DejaVuSans-75" x="63.378906"/>
      <use xlink:href="#DejaVuSans-6d" x="126.757812"/>
      <use xlink:href="#DejaVuSans-61" x="224.169922"/>
      <use xlink:href="#DejaVuSans-6e" x="285.449219"/>
      <use xlink:href="#DejaVuSans-73" x="348.828125"/>
      <use xlink:href="#DejaVuSans-65" x="400.927734"/>
      <use xlink:href="#DejaVuSans-63" x="462.451172"/>
      <use xlink:href="#DejaVuSans-20" x="517.431641"/>
      <use xlink:href="#DejaVuSans-28" x="549.21875"/>
      <use xlink:href="#DejaVuSans-64" x="588.232422"/>
      <use xlink:href="#DejaVuSans-47" x="651.708984"/>
      <use xlink:href="#DejaVuSans-2080" x="729.199219"/>
      <use xlink:href="#DejaVuSans-29" x="769.287109"/>
     </g>
    </g>
    <g id="PathCollection_47">
     <g>
      <use xlink:href="#mf921dc9bf1" x="41.4775" y="56.155" style="fill: #0000ff; fill-opacity: 0.7; stroke: #000000; stroke-opacity: 0.7"/>
     </g>
    </g>
    <g id="text_18">
     <!-- humancys (dG*) -->
     <g transform="translate(52.2775 57.73) scale(0.06 -0.06)">
      <defs>
       <path id="DejaVuSans-79" d="M 2059 -325 
Q 1816 -950 1584 -1140 
Q 1353 -1331 966 -1331 
L 506 -1331 
L 506 -850 
L 844 -850 
Q 1081 -850 1212 -737 
Q 1344 -625 1503 -206 
L 1606 56 
L 191 3500 
L 800 3500 
L 1894 763 
L 2988 3500 
L 3597 3500 
L 2059 -325 
z
" transform="scale(0.015625)"/>
      </defs>
      <use xlink:href="#DejaVuSans-68"/>
      <use xlink:href="#DejaVuSans-75" x="63.378906"/>
      <use xlink:href="#DejaVuSans-6d" x="126.757812"/>
      <use xlink:href="#DejaVuSans-61" x="224.169922"/>
      <use xlink:href="#DejaVuSans-6e" x="285.449219"/>
      <use xlink:href="#DejaVuSans-63" x="348.828125"/>
      <use xlink:href="#DejaVuSans-79" x="403.808594"/>
      <use xlink:href="#DejaVuSans-73" x="462.988281"/>
      <use xlink:href="#DejaVuSans-20" x="515.087891"/>
      <use xlink:href="#DejaVuSans-28" x="546.875"/>
      <use xlink:href="#DejaVuSans-64" x="585.888672"/>
      <use xlink:href="#DejaVuSans-47" x="649.365234"/>
      <use xlink:href="#DejaVuSans-2a" x="726.855469"/>
      <use xlink:href="#DejaVuSans-29" x="776.855469"/>
     </g>
    </g>
    <g id="PathCollection_48">
     <g>
      <use xlink:href="#m9a1dfeb4b4" x="41.4775" y="64.961875" style="fill: #808080; fill-opacity: 0.7; stroke: #000000; stroke-opacity: 0.7"/>
     </g>
    </g>
    <g id="text_19">
     <!-- humancys (dG) -->
     <g transform="translate(52.2775 66.536875) scale(0.06 -0.06)">
      <use xlink:href="#DejaVuSans-68"/>
      <use xlink:href="#DejaVuSans-75" x="63.378906"/>
      <use xlink:href="#DejaVuSans-6d" x="126.757812"/>
      <use xlink:href="#DejaVuSans-61" x="224.169922"/>
      <use xlink:href="#DejaVuSans-6e" x="285.449219"/>
      <use xlink:href="#DejaVuSans-63" x="348.828125"/>
      <use xlink:href="#DejaVuSans-79" x="403.808594"/>
      <use xlink:href="#DejaVuSans-73" x="462.988281"/>
      <use xlink:href="#DejaVuSans-20" x="515.087891"/>
      <use xlink:href="#DejaVuSans-28" x="546.875"/>
      <use xlink:href="#DejaVuSans-64" x="585.888672"/>
      <use xlink:href="#DejaVuSans-47" x="649.365234"/>
      <use xlink:href="#DejaVuSans-2080" x="726.855469"/>
      <use xlink:href="#DejaVuSans-29" x="766.943359"/>
     </g>
    </g>
    <g id="PathCollection_49">
     <g>
      <use xlink:href="#mae445b9531" x="41.4775" y="73.76875" style="fill: #0000ff; fill-opacity: 0.7; stroke: #000000; stroke-opacity: 0.7"/>
     </g>
    </g>
    <g id="text_20">
     <!-- Y48F (dG*) -->
     <g transform="translate(52.2775 75.34375) scale(0.06 -0.06)">
      <defs>
       <path id="DejaVuSans-59" d="M -13 4666 
L 666 4666 
L 1959 2747 
L 3244 4666 
L 3922 4666 
L 2272 2222 
L 2272 0 
L 1638 0 
L 1638 2222 
L -13 4666 
z
" transform="scale(0.015625)"/>
       <path id="DejaVuSans-46" d="M 628 4666 
L 3309 4666 
L 3309 4134 
L 1259 4134 
L 1259 2759 
L 3109 2759 
L 3109 2228 
L 1259 2228 
L 1259 0 
L 628 0 
L 628 4666 
z
" transform="scale(0.015625)"/>
      </defs>
      <use xlink:href="#DejaVuSans-59"/>
      <use xlink:href="#DejaVuSans-34" x="61.083984"/>
      <use xlink:href="#DejaVuSans-38" x="124.707031"/>
      <use xlink:href="#DejaVuSans-46" x="188.330078"/>
      <use xlink:href="#DejaVuSans-20" x="245.849609"/>
      <use xlink:href="#DejaVuSans-28" x="277.636719"/>
      <use xlink:href="#DejaVuSans-64" x="316.650391"/>
      <use xlink:href="#DejaVuSans-47" x="380.126953"/>
      <use xlink:href="#DejaVuSans-2a" x="457.617188"/>
      <use xlink:href="#DejaVuSans-29" x="507.617188"/>
     </g>
    </g>
    <g id="PathCollection_50">
     <g>
      <use xlink:href="#mdd0ba57090" x="41.4775" y="82.575625" style="fill: #808080; fill-opacity: 0.7; stroke: #000000; stroke-opacity: 0.7"/>
     </g>
    </g>
    <g id="text_21">
     <!-- Y48F (dG) -->
     <g transform="translate(52.2775 84.150625) scale(0.06 -0.06)">
      <use xlink:href="#DejaVuSans-59"/>
      <use xlink:href="#DejaVuSans-34" x="61.083984"/>
      <use xlink:href="#DejaVuSans-38" x="124.707031"/>
      <use xlink:href="#DejaVuSans-46" x="188.330078"/>
      <use xlink:href="#DejaVuSans-20" x="245.849609"/>
      <use xlink:href="#DejaVuSans-28" x="277.636719"/>
      <use xlink:href="#DejaVuSans-64" x="316.650391"/>
      <use xlink:href="#DejaVuSans-47" x="380.126953"/>
      <use xlink:href="#DejaVuSans-2080" x="457.617188"/>
      <use xlink:href="#DejaVuSans-29" x="497.705078"/>
     </g>
    </g>
    <g id="PathCollection_51">
     <g>
      <use xlink:href="#mde344a70ac" x="41.4775" y="91.3825" style="fill: #0000ff; fill-opacity: 0.7; stroke: #000000; stroke-opacity: 0.7"/>
     </g>
    </g>
    <g id="text_22">
     <!-- A52T (dG*) -->
     <g transform="translate(52.2775 92.9575) scale(0.06 -0.06)">
      <defs>
       <path id="DejaVuSans-54" d="M -19 4666 
L 3928 4666 
L 3928 4134 
L 2272 4134 
L 2272 0 
L 1638 0 
L 1638 4134 
L -19 4134 
L -19 4666 
z
" transform="scale(0.015625)"/>
      </defs>
      <use xlink:href="#DejaVuSans-41"/>
      <use xlink:href="#DejaVuSans-35" x="68.408203"/>
      <use xlink:href="#DejaVuSans-32" x="132.03125"/>
      <use xlink:href="#DejaVuSans-54" x="195.654297"/>
      <use xlink:href="#DejaVuSans-20" x="256.738281"/>
      <use xlink:href="#DejaVuSans-28" x="288.525391"/>
      <use xlink:href="#DejaVuSans-64" x="327.539062"/>
      <use xlink:href="#DejaVuSans-47" x="391.015625"/>
      <use xlink:href="#DejaVuSans-2a" x="468.505859"/>
      <use xlink:href="#DejaVuSans-29" x="518.505859"/>
     </g>
    </g>
    <g id="PathCollection_52">
     <g>
      <use xlink:href="#m32e5fa7c5e" x="41.4775" y="100.189375" style="fill: #808080; fill-opacity: 0.7; stroke: #000000; stroke-opacity: 0.7"/>
     </g>
    </g>
    <g id="text_23">
     <!-- A52T (dG) -->
     <g transform="translate(52.2775 101.764375) scale(0.06 -0.06)">
      <use xlink:href="#DejaVuSans-41"/>
      <use xlink:href="#DejaVuSans-35" x="68.408203"/>
      <use xlink:href="#DejaVuSans-32" x="132.03125"/>
      <use xlink:href="#DejaVuSans-54" x="195.654297"/>
      <use xlink:href="#DejaVuSans-20" x="256.738281"/>
      <use xlink:href="#DejaVuSans-28" x="288.525391"/>
      <use xlink:href="#DejaVuSans-64" x="327.539062"/>
      <use xlink:href="#DejaVuSans-47" x="391.015625"/>
      <use xlink:href="#DejaVuSans-2080" x="468.505859"/>
      <use xlink:href="#DejaVuSans-29" x="508.59375"/>
     </g>
    </g>
    <g id="PathCollection_53">
     <g>
      <use xlink:href="#m0d98184581" x="41.4775" y="108.99625" style="fill: #0000ff; fill-opacity: 0.7; stroke: #000000; stroke-opacity: 0.7"/>
     </g>
    </g>
    <g id="text_24">
     <!-- A47S (dG*) -->
     <g transform="translate(52.2775 110.57125) scale(0.06 -0.06)">
      <defs>
       <path id="DejaVuSans-37" d="M 525 4666 
L 3525 4666 
L 3525 4397 
L 1831 0 
L 1172 0 
L 2766 4134 
L 525 4134 
L 525 4666 
z
" transform="scale(0.015625)"/>
      </defs>
      <use xlink:href="#DejaVuSans-41"/>
      <use xlink:href="#DejaVuSans-34" x="68.408203"/>
      <use xlink:href="#DejaVuSans-37" x="132.03125"/>
      <use xlink:href="#DejaVuSans-53" x="195.654297"/>
      <use xlink:href="#DejaVuSans-20" x="259.130859"/>
      <use xlink:href="#DejaVuSans-28" x="290.917969"/>
      <use xlink:href="#DejaVuSans-64" x="329.931641"/>
      <use xlink:href="#DejaVuSans-47" x="393.408203"/>
      <use xlink:href="#DejaVuSans-2a" x="470.898438"/>
      <use xlink:href="#DejaVuSans-29" x="520.898438"/>
     </g>
    </g>
    <g id="PathCollection_54">
     <g>
      <use xlink:href="#m7af1f1c0d2" x="41.4775" y="117.803125" style="fill: #808080; fill-opacity: 0.7; stroke: #000000; stroke-opacity: 0.7"/>
     </g>
    </g>
    <g id="text_25">
     <!-- A47S (dG) -->
     <g transform="translate(52.2775 119.378125) scale(0.06 -0.06)">
      <use xlink:href="#DejaVuSans-41"/>
      <use xlink:href="#DejaVuSans-34" x="68.408203"/>
      <use xlink:href="#DejaVuSans-37" x="132.03125"/>
      <use xlink:href="#DejaVuSans-53" x="195.654297"/>
      <use xlink:href="#DejaVuSans-20" x="259.130859"/>
      <use xlink:href="#DejaVuSans-28" x="290.917969"/>
      <use xlink:href="#DejaVuSans-64" x="329.931641"/>
      <use xlink:href="#DejaVuSans-47" x="393.408203"/>
      <use xlink:href="#DejaVuSans-2080" x="470.898438"/>
      <use xlink:href="#DejaVuSans-29" x="510.986328"/>
     </g>
    </g>
   </g>
  </g>
 </g>
 <defs>
  <clipPath id="p49ff2a5952">
   <rect x="30.0775" y="22.318125" width="195.3" height="166.32"/>
  </clipPath>
 </defs>
</svg>
